# xmcd
#
# Track frame offsets: 
#        150
#        29447
#        57654
#        82772
#        97577
#        125933
#        145864
#        169816
#        197835
#        224108
#
# Disc length: 3707 seconds
#
# Revision: 1
# Processed by: cddbd v1.5.2PL0 Copyright (c) Steve Scherf et al.
# Submitted via: ExactAudioCopyFreeDBPlugin 1.0
#
DISCID=930e790a
DTITLE=Colin John Band - Live From Hell
DYEAR=1999
DGENRE=Blues
TTITLE0=Feel Like A King
TTITLE1=Stop It
TTITLE2=The Thrill Is Gone
TTITLE3=Kool And The Gang
TTITLE4=People Say
TTITLE5=Palace Of The King
TTITLE6=Good Man Feeling Bad
TTITLE7=Kinky Woman
TTITLE8=Texas Tornado
TTITLE9=Love And Happiness-Voodoo Chile
EXTD=
EXTT0=
EXTT1=
EXTT2=
EXTT3=
EXTT4=
EXTT5=
EXTT6=
EXTT7=
EXTT8=
EXTT9=
PLAYORDER=
